<svg id="logosandtypes_com" data-name="logosandtypes com" xmlns="http://www.w3.org/2000/svg" viewBox="0 0 150 150"><defs><style>.cls-1{fill:none;}.cls-2{fill:#34a853;}.cls-3{fill:#fbbc04;}.cls-4{fill:#c5221f;}.cls-5{fill:#4285f4;}.cls-6{fill:#ea4335;}</style></defs><path class="cls-1" d="M0,.2H150v150H0Z" transform="translate(0 -0.2)"/><path class="cls-2" d="M111.34,125.06h21.23a9.09,9.09,0,0,0,9.1-9.1V50.75L111.34,71.31Z" transform="translate(0 -0.2)"/><path class="cls-3" d="M109.34,35.57l2,37.93,30.33-22.75V38.62A13.65,13.65,0,0,0,119.83,27.7Z" transform="translate(0 -0.2)"/><path class="cls-4" d="M8.21,38.62V50.75L38.43,76l1.93-40.54L30.05,27.7A13.65,13.65,0,0,0,8.21,38.62Z" transform="translate(0 -0.2)"/><path class="cls-5" d="M17.31,125.06H38.54V73.5L8.21,50.75V116A9.1,9.1,0,0,0,17.31,125.06Z" transform="translate(0 -0.2)"/><path class="cls-6" d="M38.54,73.5V34.07l36.4,27.29,36.4-27.29V73.5l-36.4,27.29Z" transform="translate(0 -0.2)"/></svg>